<svg version="1.1" id="Layer_1" xmlns="http://www.w3.org/2000/svg" xmlns:xlink="http://www.w3.org/1999/xlink" x="0px" y="0px"
	 width="100%" viewBox="0 0 1024 576" enable-background="new 0 0 1024 576" xml:space="preserve">
<path fill="#000000" opacity="1.000000" stroke="none" 
	d="
M833.082153,61.698673 
	C835.488770,61.696945 837.488159,61.729137 839.486938,61.710556 
	C844.240845,61.666359 849.404907,62.861935 852.184326,56.694664 
	C855.901733,60.864021 859.842834,59.830948 863.390686,58.125134 
	C865.901428,56.917946 867.434082,57.541813 869.123047,59.132359 
	C869.486877,59.474991 869.888977,59.785931 870.206665,60.167171 
	C873.527832,64.153229 879.145874,59.984581 881.993469,62.917320 
	C885.338745,66.362595 888.089539,68.972565 893.057068,66.749046 
	C893.576721,66.516441 894.711914,66.542900 894.900574,66.852287 
	C898.418030,72.618774 906.781250,70.556221 910.279663,76.447540 
	C911.068848,77.776634 912.832458,78.205986 914.587341,78.560623 
	C919.281982,79.509384 922.475159,82.816978 925.562805,86.298203 
	C927.439026,88.413536 929.239014,91.013718 932.773193,90.645493 
	C934.982666,90.415291 936.481873,91.793327 937.932068,93.242752 
	C941.795349,97.104050 945.249695,101.462883 950.535095,103.613976 
	C951.501892,104.007477 952.314697,104.830864 952.045593,105.941330 
	C950.733276,111.356529 955.091858,113.124916 958.286682,115.484161 
	C959.330078,116.254646 961.284607,116.663460 960.991089,117.969833 
	C959.749207,123.498253 964.678650,124.904419 967.211060,127.898315 
	C967.741150,128.524994 968.972046,129.170273 968.886292,129.615707 
	C967.346130,137.615524 976.870483,142.717041 973.899414,151.238190 
	C978.631592,151.540665 979.378540,154.555649 979.186401,158.076431 
	C979.011047,161.289612 978.941223,164.308273 981.601379,166.837463 
	C982.765564,167.944397 982.827576,169.861908 982.893005,171.554291 
	C983.314270,182.441284 981.725159,193.292343 983.008423,204.252167 
	C983.616028,209.440887 983.384949,215.010071 982.320435,220.366745 
	C981.641968,223.780762 978.813171,225.893234 977.552734,229.156906 
	C976.081360,232.966537 973.919128,237.035706 971.327576,240.650528 
	C968.582703,244.479248 966.300842,248.459351 962.910095,251.976501 
	C959.044678,255.985825 953.791016,257.943787 950.218384,262.259827 
	C947.801819,265.179230 944.470764,267.498840 941.828674,270.182831 
	C936.281311,275.817993 928.981995,277.260742 922.418152,280.526398 
	C918.303711,282.573395 914.174011,285.106415 909.962280,286.510956 
	C903.170166,288.776123 897.555237,294.769562 889.428650,293.162994 
	C886.317139,292.547913 883.074524,292.780121 881.477783,296.579376 
	C880.786560,298.224030 878.895020,297.957611 877.467834,298.011627 
	C873.141174,298.175415 868.807373,298.137238 864.477417,298.228333 
	C861.091003,298.299591 858.142395,298.724274 854.753235,300.459351 
	C850.644653,302.562714 845.056091,301.911316 840.093201,302.177002 
	C832.970093,302.558258 825.887817,300.465729 818.692566,301.888306 
	C816.833191,302.255920 815.457581,302.789062 814.803772,304.412354 
	C814.070496,306.232910 815.812073,307.032166 816.821899,308.028168 
	C823.108948,314.229523 829.409607,320.417389 835.754883,326.558990 
	C837.026184,327.789429 838.006226,329.387360 840.146545,329.577667 
	C843.040649,329.835052 843.309143,332.160095 843.277222,334.405640 
	C843.224792,338.088043 843.488281,341.224762 846.628479,344.208038 
	C850.179626,347.581757 848.475281,355.196106 844.355957,358.658051 
	C843.021423,359.779572 842.568970,360.820496 844.630859,362.034760 
	C849.089966,364.660706 849.251709,368.589050 845.229065,371.362274 
	C842.817688,373.024689 842.140686,390.157959 844.721069,391.137848 
	C847.908264,392.348145 848.038147,394.505005 847.820984,397.038269 
	C847.583740,399.806702 845.674194,400.904633 842.681519,400.818512 
	C844.062256,406.741119 840.515564,407.339569 836.219666,409.554260 
	C826.123108,414.759369 815.590454,410.387390 805.594238,412.954895 
	C804.153564,413.324951 801.612610,412.914093 800.876953,411.912537 
	C797.881470,407.834686 792.636719,410.027039 789.156921,407.171021 
	C787.400940,405.729736 785.472168,408.061890 784.105042,409.375580 
	C782.096252,411.305878 780.059875,412.725128 777.111816,412.315918 
	C775.210022,412.051941 774.150146,413.397827 772.930847,414.584473 
	C769.836792,417.595612 766.622437,420.483337 763.445801,423.409149 
	C763.081360,423.744873 762.630310,424.292053 762.254089,424.264709 
	C753.746216,423.646210 747.133484,431.440491 738.195312,429.477448 
	C734.600647,428.687988 730.905273,428.925415 727.548279,431.968658 
	C725.301392,434.005493 721.444153,433.229462 718.317017,433.178467 
	C705.869385,432.975677 693.425171,432.563049 680.979919,432.219757 
	C680.151367,432.196899 678.847717,432.419434 678.568970,431.997131 
	C674.509338,425.846893 668.636658,429.786926 663.625427,429.304230 
	C659.171692,428.875214 655.225159,427.722656 650.973511,426.046326 
	C644.963928,423.676849 639.452637,420.277374 633.358582,418.193756 
	C632.205444,417.799438 631.245117,418.223358 630.706055,418.998871 
	C628.118835,422.720428 624.254028,425.132629 621.265503,428.429871 
	C621.153870,428.553040 620.959961,428.697968 620.969055,428.820526 
	C621.636047,437.791565 612.011108,438.797852 608.519897,444.659637 
	C607.411926,446.519836 606.194702,447.871918 606.215454,450.206329 
	C606.322144,462.192535 606.264343,474.180145 606.301392,486.167114 
	C606.308777,488.557678 606.174866,490.847290 604.229614,492.586365 
	C602.766907,493.894043 602.144165,495.547638 602.221802,497.494080 
	C602.288513,499.166840 601.838135,500.380920 599.873535,500.655731 
	C598.417786,500.859344 597.447571,502.033875 597.154602,503.326233 
	C595.547974,510.413177 590.963562,513.977295 584.008850,515.162231 
	C582.876343,515.355164 581.602539,516.567810 580.988586,517.647278 
	C577.657043,523.504761 569.850525,521.924927 565.921692,526.863342 
	C565.165100,527.814331 562.870605,528.545959 561.836121,528.100464 
	C556.954346,525.997986 554.306030,529.554443 551.712646,532.133484 
	C548.329956,535.497375 544.697021,536.076965 540.391174,535.154419 
	C537.276245,534.487061 534.463928,534.758301 532.493896,537.780823 
	C531.363342,539.515381 529.102295,539.929871 527.564087,539.714783 
	C519.883057,538.640503 512.288574,540.187378 504.660339,540.037903 
	C494.086792,539.830688 483.516876,539.415588 472.942902,539.262085 
	C466.810669,539.173157 460.670837,539.350037 454.541016,539.581543 
	C453.331482,539.627197 452.032318,539.872742 451.221497,539.070312 
	C447.140747,535.031555 442.145905,534.911377 436.907349,535.278076 
	C434.353058,535.456909 432.234833,534.436646 430.377106,532.430481 
	C427.580750,529.410706 424.431152,526.717468 421.421082,523.896851 
	C421.064880,523.563110 420.596893,523.000122 420.255890,523.050537 
	C414.809662,523.857422 410.723328,521.322693 405.942108,519.082397 
	C402.387634,517.416931 399.180145,515.718567 396.257874,513.216431 
	C393.333618,510.712585 389.542023,508.743011 390.424866,503.862518 
	C380.678955,493.575897 387.548309,481.032227 385.826935,469.653839 
	C385.601746,468.165405 386.256897,466.588440 387.690552,465.786469 
	C390.952118,463.961884 389.860382,462.409821 388.106049,459.917908 
	C385.057800,455.587982 383.165283,450.470093 378.468140,447.316803 
	C377.701416,446.802094 377.572235,444.799957 377.720306,443.553223 
	C378.373291,438.054565 374.538727,435.895264 370.927460,432.982178 
	C363.481659,426.975922 354.802826,429.154694 346.544922,428.114929 
	C337.287994,426.949402 330.297424,431.537506 322.920563,435.740540 
	C317.532654,438.810303 311.972260,440.414368 305.299042,440.176697 
	C283.073578,439.385315 260.812439,439.566833 238.564606,439.458984 
	C234.243820,439.438019 230.046722,438.938782 226.412125,443.019012 
	C224.258087,445.437195 219.819122,443.754333 216.477615,443.814301 
	C212.309708,443.889099 208.084259,442.062775 204.858429,446.485474 
	C204.310303,447.237000 202.351761,447.112976 201.041306,447.130341 
	C192.755692,447.240479 184.468643,447.354584 176.182983,447.307739 
	C171.177750,447.279449 167.913696,442.143677 162.713074,442.452484 
	C162.517532,442.464142 162.114624,441.986176 162.107330,441.727905 
	C161.907166,434.652679 154.840073,429.293243 156.932648,421.738983 
	C158.174591,417.255493 156.704117,412.699951 158.173004,408.085907 
	C159.110275,405.141785 159.620834,402.674652 162.360535,400.895935 
	C167.575150,397.510406 168.527023,391.372437 171.256073,386.387177 
	C171.718964,385.541565 171.585312,383.722656 172.033295,383.613861 
	C177.639664,382.252747 175.789597,378.379395 175.462585,374.734528 
	C175.312927,373.066467 175.094101,370.627228 178.123840,370.232300 
	C179.766220,370.018219 179.671463,368.296478 179.671371,366.954987 
	C179.670731,357.357117 179.536285,347.756989 179.711166,338.162445 
	C179.786789,334.014008 177.187164,333.519165 174.215683,333.455719 
	C166.748184,333.296265 159.277100,333.232819 151.807938,333.260101 
	C148.981476,333.270416 146.379547,332.933777 144.961487,330.187439 
	C143.731415,327.805237 141.634277,328.415131 139.723267,328.330383 
	C134.955994,328.118866 129.742401,330.216522 125.849548,325.588379 
	C119.422020,327.550323 116.797585,318.228821 109.971710,320.742706 
	C109.698738,316.598419 107.844124,314.673248 103.794632,315.848114 
	C102.638870,316.183441 101.286392,316.255920 100.554123,315.188782 
	C96.327583,309.029541 89.693077,306.655060 83.251457,303.938049 
	C81.908043,303.371429 80.955956,302.001953 81.137314,300.777557 
	C81.789421,296.375031 79.322403,296.098999 75.893913,295.719391 
	C72.844147,295.381714 72.181480,290.579346 68.671669,291.066162 
	C68.097160,284.102844 64.731438,278.884155 60.772224,273.943024 
	C60.361866,273.430908 59.349976,272.916595 59.422619,272.574188 
	C60.526920,267.368713 54.154369,265.179047 54.520485,260.291412 
	C54.564674,259.701508 54.218700,258.685516 53.795429,258.517578 
	C48.233253,256.310760 49.931786,251.741608 50.150925,247.649231 
	C50.253960,245.725052 49.679726,243.881989 48.428272,242.570648 
	C44.391087,238.340286 44.289215,233.246536 45.245533,228.084534 
	C45.813786,225.017212 45.483883,222.483337 43.398685,220.222061 
	C42.211166,218.934280 41.608685,217.478699 41.576817,215.720795 
	C41.487732,210.806610 41.238762,205.892563 41.278793,200.980286 
	C41.293243,199.207062 41.751553,197.483917 43.468899,196.188965 
	C45.109867,194.951584 46.093517,192.827988 45.472786,190.844223 
	C44.141209,186.588699 45.896816,184.148438 49.795212,182.529510 
	C49.078510,178.233246 48.105408,173.846970 52.858864,171.131866 
	C52.992092,171.055756 53.121796,170.887650 53.157768,170.739304 
	C56.250862,157.982162 68.733421,153.813675 76.291916,145.164093 
	C78.260155,142.911728 81.654358,141.519058 81.557762,136.934845 
	C81.490288,133.732651 86.826462,132.765213 89.301224,130.083542 
	C90.618210,128.656479 92.352768,127.425812 93.425705,125.278770 
	C98.451332,127.127686 101.059654,123.193138 104.025909,120.547768 
	C112.201530,113.256531 120.168114,105.730583 128.198013,98.276619 
	C129.451416,97.113106 130.651550,96.045731 132.575729,96.467468 
	C134.222412,96.828384 135.516251,96.249474 136.300018,94.685303 
	C136.756439,93.774391 137.365204,92.609344 138.418686,92.830383 
	C143.849594,93.969887 147.596344,89.544907 152.129120,88.080582 
	C155.858292,86.875885 160.396606,85.642792 164.189667,82.895386 
	C167.731995,80.329582 172.206711,77.536308 177.381775,77.887100 
	C178.467789,77.960724 180.143509,77.763557 180.621292,77.061142 
	C184.823425,70.883560 190.951950,74.245338 196.165649,74.048157 
	C199.468842,73.923225 200.557617,81.906647 197.658218,84.807732 
	C196.378113,86.088577 194.878357,87.302185 193.250183,88.048729 
	C190.511002,89.304695 188.966537,91.020622 189.276062,94.179878 
	C189.411652,95.563828 188.919037,96.981583 187.707703,97.679520 
	C182.070007,100.927765 178.774338,106.932671 173.026672,110.049667 
	C172.376266,110.402397 171.515656,111.419540 171.624207,111.950302 
	C172.371002,115.601501 170.245773,117.095512 167.807297,119.432709 
	C163.963943,123.116470 158.975159,125.405243 155.754471,129.750778 
	C155.289902,130.377609 153.834229,130.724197 153.843872,131.179123 
	C153.963043,136.801422 148.968277,138.563019 145.970673,141.794174 
	C144.982056,142.859818 144.261261,144.083817 144.572998,145.367706 
	C145.549637,149.389969 143.933212,151.407776 139.683151,151.535034 
	C140.375122,154.674561 140.555923,157.268570 137.215546,158.480087 
	C136.557816,158.718658 135.618423,159.814713 135.732819,160.295441 
	C136.881775,165.123642 133.229324,167.216919 130.318817,169.322571 
	C125.564896,172.761917 126.123528,177.517746 126.312698,182.261948 
	C126.469315,186.189941 127.366394,190.017654 123.158226,192.930054 
	C120.948723,194.459229 122.029762,203.085312 124.428757,204.629593 
	C126.686928,206.083191 126.231644,208.028870 126.189163,209.907272 
	C126.111511,213.340866 126.147629,216.543793 129.618256,218.637894 
	C131.090454,219.526215 132.129700,221.506714 131.562897,222.959213 
	C129.559082,228.094406 133.271942,230.291962 136.337570,232.516357 
	C139.159943,234.564270 140.897110,236.765106 140.098175,240.894318 
	C146.242783,239.836243 147.716095,245.914276 151.879333,248.047577 
	C153.239899,248.744781 154.362259,249.915100 156.077301,250.034164 
	C160.029266,250.308517 164.155975,250.033691 166.747955,254.096878 
	C167.397141,255.114517 168.865250,254.828461 170.034332,254.823929 
	C179.271484,254.788071 188.508667,254.765640 197.745850,254.739838 
	C198.245758,254.738449 198.966461,254.962250 199.213089,254.713348 
	C204.329407,249.549881 211.918320,250.895340 218.015808,247.479034 
	C223.090744,244.635666 228.487030,238.775421 235.877319,242.046341 
	C237.523178,242.774780 238.167908,241.487488 239.178925,240.616547 
	C242.612610,237.658646 246.654587,235.390533 250.238495,232.948776 
	C254.280609,230.194839 260.023499,231.150925 262.737244,226.522766 
	C262.884399,226.271744 263.275177,226.011169 263.552704,226.011017 
	C274.286896,226.005325 276.959442,215.223022 284.168030,210.452805 
	C287.523407,208.232422 290.384399,205.234543 293.806915,202.874603 
	C299.028198,199.274353 303.123352,194.270996 306.813477,189.012680 
	C308.191742,187.048660 310.815247,186.542679 312.703156,184.952713 
	C319.278778,179.414841 325.356049,173.337662 332.159637,167.995697 
	C337.385223,163.892776 342.344971,159.027344 347.196960,154.253479 
	C351.530792,149.989456 355.151825,144.163376 362.444427,143.540558 
	C364.465790,143.367920 366.663025,141.536346 368.187744,139.910797 
	C374.765015,132.898605 383.004211,129.889053 392.113800,127.274071 
	C397.064545,125.852913 403.773621,126.107582 407.227539,120.498642 
	C407.390442,120.234093 407.809662,119.858704 407.994080,119.914772 
	C415.506439,122.198555 420.491608,114.777580 427.421448,114.868889 
	C428.084473,114.877625 428.836823,114.944008 429.400177,114.674820 
	C442.655487,108.341217 456.901733,112.275864 470.610718,110.690392 
	C472.385620,110.485115 474.160736,110.353043 474.832855,112.951340 
	C475.359924,114.988922 477.384857,114.506721 479.083527,114.425606 
	C481.718628,114.299767 484.558777,114.257263 486.929352,113.721878 
	C494.058746,112.111725 499.068878,117.293327 504.487427,119.493271 
	C508.789581,121.239983 512.646667,122.572243 517.143066,122.653137 
	C517.306396,122.656067 517.528687,122.648842 517.623169,122.744972 
	C526.171875,131.443985 532.410645,122.256874 539.518616,119.897766 
	C540.287903,119.642418 540.996033,118.682816 541.671265,118.742592 
	C550.067444,119.485855 557.205261,112.866020 565.803467,114.710335 
	C568.281555,115.241890 570.690308,114.727852 572.874634,113.069611 
	C575.409424,111.145294 578.478577,111.365280 581.506714,111.442047 
	C587.973083,111.605972 594.445374,111.741188 600.911377,111.640907 
	C604.681885,111.582428 608.052795,112.506416 611.213684,114.448341 
	C611.893372,114.865883 612.666504,115.713135 613.257751,115.604790 
	C621.285217,114.133705 628.660522,117.336105 635.495483,120.186317 
	C642.206604,122.984863 649.721924,123.050568 655.885559,126.995537 
	C658.940979,128.951172 662.637207,127.270897 665.723877,129.487915 
	C670.768677,133.111359 678.105408,132.869034 681.837402,138.900238 
	C682.420044,139.841797 683.655212,139.762589 684.599365,139.444077 
	C686.656494,138.750137 688.275696,139.414795 689.432068,141.022995 
	C690.955627,143.142075 692.993835,144.037994 695.455872,143.799759 
	C699.107056,143.446472 700.128967,146.945099 701.699341,148.710815 
	C706.139038,153.702545 712.722107,155.294312 717.377136,159.741043 
	C717.875977,160.217590 718.993103,160.361237 719.737549,160.216675 
	C725.736145,159.051575 729.062317,163.967255 733.634155,166.078522 
	C740.889832,169.429199 746.038452,176.563370 754.406860,177.700653 
	C757.232483,178.084671 756.873596,180.947266 758.816833,182.022156 
	C764.456970,185.141815 769.671997,188.916000 776.301147,190.137848 
	C780.033997,190.825851 782.585205,194.372726 786.537537,195.538208 
	C789.156555,196.310486 791.583435,197.742126 794.492004,197.714310 
	C796.887390,197.691422 799.073914,198.489380 801.019836,199.887543 
	C802.236023,200.761398 803.434814,201.438187 805.009583,201.738922 
	C811.057617,202.893936 816.293579,207.344437 822.935425,206.171021 
	C827.487793,211.962402 833.896179,209.103149 839.545532,209.667374 
	C842.643066,209.976746 845.405762,209.698624 847.933167,212.751953 
	C849.904053,215.132904 854.491821,214.860184 856.662842,212.886246 
	C860.521179,209.378113 864.846436,209.673615 869.238220,209.558807 
	C871.862610,209.490219 874.184265,209.104279 876.023254,207.091019 
	C876.355347,206.727463 876.814758,206.131226 877.151123,206.172073 
	C883.911560,206.992676 885.747070,201.113892 889.777771,197.893951 
	C893.271545,195.102905 896.352600,191.628433 900.135559,189.232895 
	C905.938477,185.558258 907.026611,178.983673 910.092529,173.705338 
	C911.163757,171.861053 911.284180,169.594681 913.646362,168.625946 
	C914.063171,168.455017 914.379944,167.948837 914.654541,167.538391 
	C915.775635,165.862305 914.186157,150.114334 913.291748,148.251877 
	C910.672546,142.797821 905.783447,138.307465 905.941956,131.651932 
	C906.022827,128.254807 903.008301,127.032600 901.347290,124.881165 
	C898.398682,121.062012 893.615234,118.922020 892.496155,113.295631 
	C891.986023,110.730812 888.548523,108.952965 885.368713,108.467270 
	C884.056824,108.266869 882.021606,108.347198 881.760681,107.181847 
	C880.009460,99.361107 871.171204,99.690453 867.268494,94.256744 
	C864.758545,90.762123 858.632751,92.622375 856.371582,88.266930 
	C852.481201,80.773277 843.548584,80.422607 838.056519,75.092422 
	C835.871643,72.972000 833.697937,70.637245 830.967651,68.829430 
	C828.932129,67.481613 829.653564,63.571484 833.082153,61.698673 
M351.287476,186.234985 
	C349.171143,188.423965 346.238281,189.954666 346.352661,193.775864 
	C346.397949,195.287796 344.573120,196.812225 343.272980,196.590515 
	C338.013641,195.693619 335.505920,198.779907 333.156708,202.599426 
	C332.503265,203.661880 331.236206,204.409424 330.134766,205.122406 
	C326.501709,207.474106 322.764801,209.715286 324.778809,214.794769 
	C320.435028,218.551895 314.922729,220.381317 312.588379,226.098022 
	C312.220703,226.998413 310.131073,229.292938 307.505493,229.712311 
	C298.003235,231.230103 291.839966,238.282486 286.001648,244.856354 
	C280.266235,251.314346 273.034760,254.977295 265.900238,259.087921 
	C265.498199,259.319550 264.841858,259.522675 264.485565,259.354431 
	C262.034271,258.196686 260.799591,259.944916 259.422791,261.365173 
	C258.489227,262.328156 257.575256,263.006104 256.059174,263.170227 
	C251.944000,263.615723 248.246002,264.164673 244.161835,266.554443 
	C239.578430,269.236328 232.993622,269.045624 227.598297,271.401215 
	C226.464630,271.896149 225.041580,271.300690 224.061249,272.721100 
	C222.141922,275.502075 219.268921,275.589752 216.110199,275.539734 
	C211.581787,275.468048 206.300415,274.721924 202.714737,276.724426 
	C199.030151,278.782104 195.755554,279.527191 192.007202,279.125916 
	C182.783508,278.138550 173.514481,280.238190 164.440659,279.122375 
	C158.440659,278.384521 152.935074,274.439850 146.506897,274.476440 
	C146.381729,274.477173 146.270065,274.245148 146.127457,274.166168 
	C141.249191,271.464569 136.509964,268.408783 130.700089,268.062408 
	C129.598328,267.996704 128.885056,267.296722 128.244446,266.518951 
	C121.281532,258.065430 110.302795,253.115784 106.654747,241.730621 
	C106.337852,240.741608 105.233345,239.708664 104.242241,239.280518 
	C98.284897,236.707062 97.349983,232.149216 99.285934,226.348465 
	C94.074432,225.733749 94.248741,221.683594 94.038658,218.404221 
	C93.423050,208.794510 92.834763,199.004868 94.494118,189.602188 
	C95.551758,183.609085 99.265396,178.016434 99.885056,171.632172 
	C99.912315,171.351303 100.210266,171.015656 100.473198,170.850601 
	C106.502892,167.065338 101.449478,160.757599 104.055931,155.995331 
	C101.296471,157.814972 98.979416,159.811249 97.346375,162.263138 
	C93.796959,167.592331 85.496040,169.375397 85.855644,177.635849 
	C85.874733,178.074265 85.099083,178.847351 84.583870,178.958969 
	C81.785767,179.565109 81.262634,181.082703 81.971397,183.733826 
	C82.358292,185.181015 81.535561,186.718521 79.854782,187.243637 
	C78.551270,187.650864 77.504616,188.631760 77.917213,189.735321 
	C79.269051,193.351044 77.030815,194.887695 74.564438,196.479401 
	C73.684715,197.047134 73.098808,198.015396 73.246452,199.036804 
	C73.918983,203.689407 72.776039,207.513794 66.593178,210.060013 
	C74.677429,212.728928 73.242744,218.135834 73.200195,222.967606 
	C73.182777,224.946350 72.759888,226.923035 72.498512,228.897629 
	C72.262161,230.683182 72.443626,232.688568 74.349922,233.036316 
	C79.539436,233.982910 77.842781,237.716034 77.792740,240.773575 
	C77.771507,242.071152 76.935013,244.347443 77.269585,244.507706 
	C81.317993,246.446915 80.467148,251.009979 82.555298,253.864380 
	C86.738098,259.582062 91.189087,265.103912 95.547478,270.692474 
	C96.457726,271.859650 98.180954,272.903198 98.283623,274.109711 
	C99.171066,284.538788 110.137375,282.201660 114.998566,287.506897 
	C115.116234,287.635284 115.648903,287.463867 115.945534,287.334778 
	C117.789047,286.532288 118.899925,287.790192 119.696701,288.974518 
	C121.409279,291.520081 123.745079,291.890839 126.531410,291.721619 
	C129.518524,291.540070 132.534973,291.829132 135.520294,291.633453 
	C138.772934,291.420197 142.223679,290.129395 143.202744,295.130035 
	C143.492661,296.610931 145.533020,296.602295 146.689697,296.430725 
	C156.299942,295.005493 165.865189,296.156311 175.440887,296.709839 
	C183.577530,297.180206 191.664169,295.128204 199.801453,296.235382 
	C201.399063,296.452728 202.427063,295.818390 203.118851,294.600464 
	C204.669388,291.870697 207.163269,291.956909 209.897934,291.525208 
	C217.629807,290.304626 226.508133,295.316467 233.052658,287.466705 
	C233.144669,287.356323 233.354309,287.315613 233.515671,287.295563 
	C240.041840,286.484222 245.801117,283.953491 250.837616,279.712341 
	C251.418777,279.222961 252.323486,278.977203 253.107773,278.892670 
	C257.873138,278.378937 261.886017,275.536194 265.956360,273.648071 
	C271.173798,271.227905 277.355225,269.631012 281.162628,264.533844 
	C281.632599,263.904724 282.450836,263.272705 283.191254,263.151184 
	C288.199219,262.329041 291.868561,258.631073 296.999359,257.354828 
	C301.964050,256.119904 307.356689,252.836029 311.529083,248.424301 
	C313.976288,245.836777 314.978271,243.682693 314.921173,240.354660 
	C314.835480,235.360962 313.546539,229.876816 320.776489,227.888916 
	C324.925446,226.748138 328.566193,222.725281 332.368195,222.128067 
	C344.362122,220.244095 345.569305,209.525177 350.784790,202.072159 
	C350.866730,201.955093 350.830536,201.745468 350.826416,201.579590 
	C350.726532,197.557877 353.377594,196.390930 356.665070,196.330780 
	C360.485687,196.260864 364.312042,196.613525 368.137634,196.672470 
	C371.518646,196.724533 373.321716,198.320236 373.623169,201.698242 
	C374.179047,207.926880 375.246094,214.186478 372.226135,220.624756 
	C375.062073,216.423904 380.265656,218.901306 383.566071,215.387527 
	C388.373779,210.268921 393.091736,204.180115 401.668030,205.706619 
	C403.052307,205.953018 404.097321,205.128479 405.145508,204.145615 
	C408.264679,201.220886 412.606171,200.370773 416.113617,197.783356 
	C418.510498,196.015228 423.122864,197.437271 426.700745,197.038589 
	C431.850159,196.464828 437.806671,200.157776 442.043518,193.919556 
	C442.828003,192.764511 445.642670,192.645081 447.153656,194.951248 
	C448.283691,196.675888 449.741852,198.732895 452.577637,196.536591 
	C451.652161,192.291489 451.755310,187.911652 452.527466,184.316895 
	C447.100769,181.906815 442.176605,179.769424 437.313019,177.502151 
	C436.646149,177.191269 436.209015,176.276825 435.786774,175.569458 
	C432.460693,169.997971 436.111755,160.105103 442.243317,158.069901 
	C443.693970,157.588409 445.705322,157.083786 446.575073,158.058456 
	C449.318787,161.133102 452.745758,160.822739 456.200165,160.736786 
	C460.991455,160.617554 462.578186,165.625900 466.396271,167.123138 
	C466.898254,167.319992 466.816681,168.948959 467.046661,169.904709 
	C468.106628,174.309860 465.516846,177.271988 462.205750,180.123093 
	C463.481384,180.702362 464.052002,181.156647 464.653687,181.202393 
	C468.070526,181.462128 471.006195,182.373627 471.351135,186.416138 
	C471.662964,190.070343 472.193726,193.785477 467.032013,194.998047 
	C465.485443,195.361389 464.226440,197.265579 463.011017,198.621048 
	C462.047333,199.695786 461.781281,201.122894 462.966431,202.220718 
	C466.501648,205.495468 469.764893,209.264282 473.810822,211.730286 
	C477.785858,214.153076 476.298553,215.927689 474.457031,218.331787 
	C472.965790,220.278687 470.453827,222.715302 469.252014,223.206497 
	C464.628174,225.096283 461.088226,229.805954 454.956482,228.543503 
	C450.325806,227.590088 445.358215,228.245163 440.540527,228.241669 
	C438.606506,228.240265 437.088409,227.720551 435.725555,226.168213 
	C433.549866,223.690018 424.373444,221.965179 422.552734,224.249207 
	C417.965332,230.003937 410.313934,227.488876 404.857422,231.661316 
	C402.328033,233.595459 398.083679,234.950897 394.210693,236.686966 
	C395.850311,240.926651 399.158112,242.635330 402.962921,243.314209 
	C405.322968,243.735336 407.033112,245.345062 408.865448,246.014236 
	C412.876221,247.478989 415.957489,250.800034 420.022583,251.567993 
	C429.198730,253.301437 431.984528,262.732117 439.142456,266.790100 
	C439.231995,266.840851 439.223602,267.105560 439.222076,267.270020 
	C439.163910,273.478882 443.552032,276.061493 448.272064,278.374237 
	C448.674133,288.911621 448.673492,288.898010 438.007874,289.410126 
	C436.687653,289.473511 435.379364,289.778290 434.064606,289.964874 
	C431.443054,290.336945 429.039886,289.784943 427.137146,287.912750 
	C420.557678,281.438934 414.159149,274.746277 406.215271,269.883759 
	C404.547180,268.862732 404.990326,265.715240 403.715790,266.001526 
	C398.711060,267.125549 396.449554,263.034454 392.958710,261.278351 
	C390.547760,260.065521 387.983154,259.562531 385.586487,257.795563 
	C382.185059,255.287857 379.139008,258.413361 375.986206,260.270020 
	C369.318207,264.196777 362.176788,267.312073 356.735901,273.101105 
	C354.824707,275.134583 354.300323,277.482330 356.435608,279.018219 
	C358.376984,280.414581 362.439331,281.039032 363.037872,278.437866 
	C364.503387,272.068420 370.384521,270.172729 373.878662,265.964722 
	C376.758057,262.497040 388.246796,263.380859 391.191925,266.844086 
	C394.790405,271.075684 398.110138,275.657043 404.276550,276.557251 
	C405.840759,276.785583 407.107880,278.018250 408.425751,279.100037 
	C410.446747,280.759033 411.662323,284.452362 414.151154,284.133179 
	C418.858887,283.529419 421.360229,286.437408 423.693634,289.094391 
	C426.549957,292.346741 432.307281,294.058258 430.487610,300.498566 
	C427.717499,301.898285 424.474854,302.165253 421.136719,302.195038 
	C416.194916,302.239136 413.399933,304.958801 413.132355,309.754883 
	C412.688477,317.711273 412.688477,317.711304 404.643860,317.951233 
	C399.080963,318.117188 397.670837,319.958496 399.146149,325.130219 
	C401.638611,333.867737 400.237549,337.951996 393.250061,339.114868 
	C387.855560,340.012604 382.268494,338.251190 376.702698,338.663147 
	C375.281647,338.768280 374.380341,337.019318 373.346802,335.917786 
	C371.996368,334.478455 370.879425,332.257843 367.823669,332.888672 
	C367.938629,336.561127 369.508209,340.037018 368.505981,343.649994 
	C368.128845,345.009552 369.135254,346.086945 370.161011,347.066101 
	C375.014282,351.698730 373.733673,359.354370 378.447906,364.101685 
	C378.675446,364.330841 378.281616,365.087311 378.384338,365.552460 
	C378.517822,366.156830 378.786835,367.171143 379.121887,367.224213 
	C383.162354,367.864594 381.685730,370.657959 381.496826,372.983978 
	C381.376160,374.470032 380.819275,376.539124 382.020630,377.290436 
	C388.441071,381.305603 383.764984,390.764343 390.633270,394.417908 
	C389.960388,399.787140 392.803101,404.092712 394.532562,408.836853 
	C395.652435,411.908691 395.795746,414.868713 397.830231,418.102966 
	C400.411804,422.206909 400.945892,427.645538 403.883057,432.306580 
	C406.601135,436.620056 409.003815,438.313782 413.255066,434.613159 
	C417.730438,430.717438 425.376068,430.841309 429.640137,434.878571 
	C436.939392,441.789551 441.121094,442.168427 449.479126,436.588379 
	C450.218628,436.094696 450.833221,435.954926 451.726746,435.974121 
	C461.144653,436.176483 471.039276,433.897522 479.481171,442.682678 
	C479.481171,443.913696 479.629364,446.413239 479.435455,448.885956 
	C479.272949,450.958221 480.392212,451.826385 481.661774,453.282043 
	C485.540405,457.729309 490.306122,455.314789 494.669159,455.769287 
	C495.909180,455.898468 496.820221,454.949982 497.296234,453.786774 
	C500.104187,446.924744 503.465668,440.752228 509.777802,436.031769 
	C513.512878,433.238525 516.780396,431.321960 521.366455,431.623383 
	C524.187805,431.808838 527.025696,431.915314 529.850464,431.840546 
	C535.733643,431.684814 542.292419,433.517303 546.436340,427.357483 
	C549.085266,423.419891 554.126648,424.614807 557.232544,421.714630 
	C561.186890,418.022247 569.493652,417.993805 573.300781,421.879883 
	C575.878601,424.511200 577.784363,423.759796 579.393982,421.399445 
	C581.738098,417.961975 585.244080,416.570068 588.878723,415.464600 
	C591.017212,414.814117 592.674744,413.855103 594.343140,412.331787 
	C597.969604,409.020538 600.334961,405.159515 602.835449,400.900299 
	C606.050720,395.423828 610.712769,391.071625 609.771179,383.974152 
	C609.629700,382.907684 609.885193,381.022186 610.510620,380.739227 
	C616.576660,377.995300 613.335876,372.286041 614.885620,368.222107 
	C617.572266,361.176697 613.079773,358.172394 609.035034,354.427185 
	C603.788147,349.568848 603.821594,343.113525 608.867310,338.087982 
	C609.988281,336.971466 611.494934,336.140656 612.219238,333.641174 
	C609.315186,336.465210 606.731689,334.012085 604.166687,334.407501 
	C599.893921,335.066132 597.635010,333.224060 596.828308,329.070282 
	C596.146667,325.560303 597.268616,323.341675 600.327759,321.281555 
	C603.728088,318.991638 606.894897,316.000366 605.507263,310.506195 
	C600.586914,310.068665 595.064697,310.798370 591.157593,306.423065 
	C591.001221,306.247986 590.510925,306.327850 590.182129,306.356567 
	C584.911377,306.816895 583.637939,303.715454 583.647583,299.241028 
	C583.660095,293.405457 588.886414,288.245667 595.039062,288.211334 
	C599.877441,288.184357 604.994812,289.368408 608.666504,284.679779 
	C609.106445,284.118042 610.144897,283.792389 610.920959,283.763794 
	C616.652405,283.552490 620.240234,278.676361 625.425842,277.183868 
	C627.771973,276.508514 629.098083,274.318848 628.598633,271.601654 
	C628.301758,269.986786 629.258484,269.386658 630.367310,268.467285 
	C633.219543,266.102325 635.815918,263.428772 638.517944,260.875275 
	C631.368774,258.858246 624.130188,262.410065 617.936279,257.269928 
	C614.389221,254.326279 613.693604,250.974930 617.155029,247.838135 
	C620.304871,244.983643 623.576782,242.261200 626.849670,239.546616 
	C628.124023,238.489624 629.229980,237.321320 627.887207,235.821457 
	C625.449707,233.098831 623.002441,228.667709 620.180237,228.353409 
	C613.705994,227.632385 608.141296,224.551880 602.031921,223.339905 
	C598.617432,222.662537 595.256165,222.940781 592.771790,219.854141 
	C591.563171,218.352539 589.506897,218.051010 587.681702,218.276825 
	C581.183594,219.080704 574.484924,215.934723 568.117737,219.285889 
	C567.721436,219.494476 567.122314,219.404297 566.633362,219.337265 
	C560.030884,218.432312 553.467590,219.923492 546.826721,219.504257 
	C538.333801,218.968109 537.196899,218.186310 537.924133,209.597137 
	C538.075806,207.805557 538.411621,205.981033 538.992432,204.284607 
	C540.144043,200.920700 538.385498,199.198273 535.618774,198.376953 
	C528.126099,196.152679 526.127991,187.559128 531.975098,181.928070 
	C533.041870,180.900772 534.547058,180.311523 534.200745,178.722839 
	C530.866760,174.864166 527.140015,172.745758 522.025330,173.318237 
	C519.631531,173.586166 516.386292,173.400345 516.325195,169.985794 
	C516.250427,165.806305 513.516235,161.115250 517.943970,157.512573 
	C518.955200,156.689774 520.456299,156.228729 520.147827,154.545792 
	C519.798950,152.642685 518.280945,153.243073 516.987183,153.091446 
	C515.720154,152.942963 513.920166,152.605545 513.388245,151.725800 
	C510.822540,147.482040 506.906097,148.417053 503.206543,148.759781 
	C498.245758,149.219345 493.213531,150.509186 489.359558,145.782623 
	C488.898804,145.217575 487.727478,144.622498 487.182739,144.828262 
	C480.672913,147.287109 475.984924,141.279541 469.806427,141.092148 
	C466.704773,140.998062 464.219147,142.295776 461.325287,142.231293 
	C450.746277,141.995453 440.159607,142.122040 429.577209,141.995316 
	C428.403015,141.981262 427.235413,141.474319 426.463806,142.693100 
	C424.864777,145.218933 422.239014,145.197418 419.791626,145.274277 
	C416.590179,145.374786 413.988495,146.046997 411.115814,148.012039 
	C408.126801,150.056625 404.316559,151.791107 401.005707,152.820007 
	C396.880157,154.102081 393.762177,155.599121 391.419006,159.024719 
	C390.743896,160.011658 389.937866,161.235764 388.756714,161.050751 
	C383.008087,160.150284 379.602753,166.433334 373.935364,165.737061 
	C372.804321,165.598083 372.597107,167.039307 371.934296,167.719788 
	C368.921661,170.812637 366.198212,174.441727 362.613403,176.646606 
	C359.431000,178.604004 356.067230,180.267776 355.036713,183.836395 
	C354.369690,186.146179 352.993103,185.452591 351.287476,186.234985 
M728.880493,238.655762 
	C731.490234,238.568863 733.057983,240.210068 734.761780,241.893677 
	C736.723145,243.831833 738.373596,246.670959 741.536438,246.570511 
	C746.473633,246.413712 750.695862,249.418945 753.882568,251.678879 
	C759.561157,255.705978 766.737549,253.381668 772.156494,257.968414 
	C773.867310,259.416504 777.734497,259.155731 779.658020,262.029877 
	C780.912903,263.905090 783.139648,263.813629 785.158508,263.536011 
	C788.459778,263.082092 791.491882,263.422302 793.687317,266.247253 
	C794.646545,267.481537 795.747253,267.463440 797.177490,267.470306 
	C803.663330,267.501343 810.807373,266.119934 816.447327,268.392151 
	C822.049866,270.649292 827.257996,271.625366 832.992920,271.558441 
	C837.466064,271.506256 842.759216,272.948822 846.238098,271.058624 
	C853.078308,267.342133 859.869202,267.826141 866.922180,268.160492 
	C867.926758,268.208160 869.169128,268.590363 869.735168,267.698120 
	C872.420288,263.465546 876.544556,263.460419 880.789246,263.673706 
	C882.015198,263.735291 883.206238,263.532806 883.875793,262.428192 
	C886.557617,258.003174 893.089966,259.581573 895.624084,254.877930 
	C895.781128,254.586472 896.884827,254.699310 897.524597,254.789871 
	C904.798462,255.819366 910.207825,251.059875 916.260376,248.528229 
	C921.677063,246.262512 924.444031,240.572998 928.931885,236.933548 
	C933.024292,233.614807 936.098633,229.488510 938.697083,224.587708 
	C940.977112,220.287537 947.260681,218.409592 947.831482,212.301544 
	C947.890564,211.669174 948.869812,211.056274 949.517700,210.558746 
	C951.004211,209.417328 951.307434,208.261978 950.826538,206.273331 
	C949.876648,202.345016 950.318970,198.058243 952.789062,194.984695 
	C957.094971,189.626877 957.075317,185.296982 951.638367,181.044144 
	C950.456238,180.119476 950.076111,179.087982 950.434326,177.564301 
	C950.755249,176.199570 951.348877,174.677505 950.123230,173.314514 
	C947.205200,173.578796 946.904236,175.914322 947.441895,177.710754 
	C949.778015,185.515579 944.526611,191.380280 941.000854,196.472046 
	C938.188843,200.532990 940.011292,207.435944 933.538818,209.012695 
	C934.542175,214.993820 928.315063,215.787979 926.011230,219.421341 
	C924.264709,222.175812 921.415100,223.249802 918.142822,223.800858 
	C915.901245,224.178375 913.474182,224.788605 911.973755,227.186554 
	C909.721313,230.786163 906.177124,231.702454 902.083313,231.236465 
	C900.659180,231.074356 898.583740,230.617981 897.901245,232.075607 
	C895.719177,236.735474 891.807190,235.653656 888.075745,235.579697 
	C886.169067,235.541901 884.141907,235.111374 882.753662,237.251755 
	C881.651367,238.951248 879.623535,238.909317 877.801331,239.144958 
	C869.623840,240.202545 861.446838,239.362259 853.264404,239.340057 
	C841.723816,239.308716 830.177490,240.148453 818.639954,239.220886 
	C814.084167,238.854614 808.864746,241.051361 805.407715,235.997086 
	C805.197632,235.689911 804.395874,235.492065 804.020874,235.636597 
	C796.154724,238.667984 790.704102,228.664032 782.771790,231.664429 
	C782.165894,231.893585 780.639893,230.671219 780.051636,229.784958 
	C778.158997,226.933502 775.499695,226.848740 772.597046,227.286880 
	C770.989075,227.529587 769.384766,227.796829 767.291260,228.130829 
	C767.199768,224.376846 764.468994,224.197006 761.878235,223.289230 
	C757.355286,221.704437 753.104431,219.368958 748.702942,217.438141 
	C745.181091,215.893204 743.472351,210.828247 738.363281,211.744949 
	C737.883972,211.830948 737.010376,211.222229 736.734375,210.711868 
	C733.019836,203.843246 725.383484,203.069244 719.387756,199.984192 
	C716.393738,198.443634 713.920654,195.026138 711.161011,195.009613 
	C706.464905,194.981491 703.890808,192.276443 701.118835,189.713348 
	C698.922546,187.682495 696.832581,186.054916 693.759583,186.336105 
	C692.274780,186.471954 691.780151,185.521194 691.114868,184.527527 
	C687.050171,178.456360 679.727112,177.714371 673.984497,174.413177 
	C672.297424,173.443329 669.760071,173.492584 668.538635,171.571823 
	C665.534546,166.848007 660.497559,167.120682 656.029480,165.422531 
	C649.902832,163.093994 642.697021,163.196136 637.591980,158.333847 
	C636.696289,157.480713 635.782349,157.616440 634.832886,157.681732 
	C627.624023,158.177383 622.521790,153.174622 616.563293,150.506882 
	C614.435059,149.554001 612.578979,148.260391 610.141052,148.345947 
	C592.361938,148.969940 574.616394,146.806915 556.796387,147.908356 
	C552.048096,148.201828 550.485596,151.183731 548.621277,153.815521 
	C547.558960,155.315140 546.760132,159.531677 551.664185,159.000320 
	C553.035461,158.851730 553.571533,160.159195 554.512573,160.768875 
	C560.857239,164.879364 562.351318,170.795944 561.406311,177.913803 
	C560.979126,181.131027 562.094666,184.721649 557.683899,186.123901 
	C556.422424,186.524963 556.071106,188.040726 556.530334,189.109177 
	C557.548950,191.478867 556.441650,193.998764 557.156372,196.702515 
	C561.114685,196.944138 564.302307,196.635925 567.943115,194.252014 
	C572.373901,191.350784 576.897766,187.670013 583.100525,188.270370 
	C585.455505,188.498306 588.140442,188.289307 590.325317,185.872864 
	C591.734314,184.314423 594.372437,183.671402 597.182983,184.127930 
	C606.010864,185.561829 614.894775,184.970047 623.917480,187.241470 
	C632.118286,189.305969 639.930115,191.127808 646.931824,195.880875 
	C647.946228,196.569534 648.982666,196.995056 650.071716,196.009384 
	C648.081421,191.886810 647.801270,191.279861 643.988525,189.355057 
	C641.034424,187.863770 641.255676,185.598999 642.377441,183.530823 
	C645.530640,177.717194 652.647339,175.596817 659.395203,177.240204 
	C664.262390,178.425552 666.045471,183.457977 670.033569,184.986923 
	C680.011963,188.812424 687.043884,196.904266 696.119324,201.932083 
	C698.484802,203.242554 699.679871,205.647110 702.018188,207.140076 
	C707.429565,210.595215 710.807556,215.538391 709.013550,222.543213 
	C708.933594,222.855148 709.011841,223.206161 709.006226,223.538803 
	C708.947388,227.033020 711.714478,230.206100 713.877747,230.115143 
	C719.472229,229.879898 721.777588,234.070343 725.247681,236.671860 
	C726.191711,237.379608 727.109314,237.979279 728.880493,238.655762 
M251.973557,391.236389 
	C248.987000,391.199829 245.985382,390.963348 243.018463,391.187103 
	C240.442108,391.381409 238.392288,390.429169 238.060593,388.144623 
	C237.721756,385.810913 238.228271,383.141937 241.186829,382.125153 
	C243.896103,381.194031 245.703644,378.881287 247.403259,376.934814 
	C248.382660,375.813171 248.759293,374.857147 250.453751,374.658752 
	C252.377258,374.433563 254.090195,373.028229 254.163788,371.144562 
	C254.251480,368.900208 252.241287,367.948547 250.254852,367.241699 
	C248.460770,366.603333 245.975388,367.755951 244.856140,365.486328 
	C242.755722,361.227051 238.528900,358.279114 235.162766,356.382172 
	C228.970490,352.892639 228.800064,348.419128 229.093658,342.863892 
	C229.190704,341.027527 228.928085,339.087524 227.100220,338.049683 
	C225.147217,336.940765 223.233994,337.578247 221.470810,338.674622 
	C216.926559,341.500214 215.076935,345.533875 215.847717,350.873444 
	C216.139603,352.895386 217.012970,355.726624 214.646896,356.633148 
	C211.029404,358.019165 211.224625,360.620575 211.239059,363.483704 
	C211.261749,367.979095 210.902924,372.503235 211.300720,376.962128 
	C211.680054,381.214508 210.370605,384.391449 207.173126,387.020905 
	C204.356888,389.336853 201.291946,391.512787 202.066910,395.967316 
	C202.169983,396.559723 201.450058,397.759369 200.881912,397.934753 
	C192.617249,400.485870 193.013870,407.084961 193.349548,413.698273 
	C193.418121,415.049286 193.366882,416.459656 194.734238,417.216949 
	C196.179230,418.017212 197.108490,416.761688 198.300903,416.264313 
	C203.252213,414.198975 204.602051,408.784454 206.031235,405.122986 
	C208.581467,398.589478 213.697205,395.364166 218.259003,391.345428 
	C220.864777,389.049835 228.721909,390.798584 228.389923,392.936707 
	C227.375443,399.470490 232.729584,407.468842 223.675339,412.162811 
	C224.669266,413.097504 225.169312,413.967407 225.848755,414.142944 
	C230.909027,415.450195 236.029999,413.492920 241.144440,414.304016 
	C242.142868,414.462341 242.455750,413.080566 242.749359,412.081024 
	C243.796021,408.518097 251.051086,402.787506 254.649368,402.792084 
	C260.955383,402.800171 267.262360,402.916046 273.566559,403.078217 
	C276.434906,403.151978 282.634796,408.843536 282.895172,411.468872 
	C283.488556,417.452087 291.945648,421.309479 296.639557,417.460938 
	C298.425476,415.996674 300.071960,415.331085 302.221375,415.120270 
	C308.168762,414.536896 313.993103,415.312164 319.918335,412.011292 
	C327.470764,407.803864 332.776672,401.601837 339.000519,396.226990 
	C341.757751,395.188477 345.128784,397.005615 348.557098,394.704437 
	C346.324066,392.763794 344.293152,392.019653 341.663330,391.666290 
	C332.822662,390.478424 328.058044,397.043732 322.444336,401.617371 
	C319.462250,404.046906 315.910309,405.132538 312.493500,402.702026 
	C310.302246,401.143219 308.062744,399.870453 305.360077,398.915131 
	C301.838562,397.670349 298.880676,394.812164 294.729736,394.656433 
	C294.055328,394.631134 293.093781,393.410400 292.841522,392.569305 
	C291.924683,389.512177 291.463287,386.619446 287.094421,386.275146 
	C284.008728,386.032013 281.698090,382.455170 277.973236,383.321930 
	C276.860962,383.580750 275.699280,383.434509 274.673187,384.200348 
	C268.201324,389.030945 260.920013,391.411530 251.973557,391.236389 
M692.321228,403.280731 
	C696.621643,403.400330 701.012451,404.133209 705.204224,403.515533 
	C714.785828,402.103546 725.645447,408.091766 733.882935,398.749207 
	C739.270996,400.622894 742.948792,397.187195 747.402527,395.099609 
	C753.275879,392.346558 759.938538,391.433319 765.049072,386.786438 
	C768.069824,384.039825 767.295532,381.894806 764.739929,379.840118 
	C763.471191,378.820099 762.297058,377.624207 761.049683,376.736755 
	C758.044250,374.598511 755.541321,371.538239 751.278076,371.343445 
	C745.006592,371.056976 738.780029,373.228363 732.497742,371.548889 
	C731.485962,371.278442 730.642395,371.891541 729.857483,372.624725 
	C723.884399,378.204071 723.818359,379.874390 729.593018,385.463348 
	C730.411011,386.254944 731.476929,386.784760 732.393738,387.480927 
	C735.242981,389.644562 735.277893,392.532410 733.151917,394.797729 
	C730.017029,398.138092 726.473267,400.298645 721.202881,400.604767 
	C714.835388,400.974609 710.597534,397.074371 705.623474,394.991241 
	C700.199646,392.719788 695.417053,388.919952 689.256836,388.347992 
	C688.618896,388.288757 687.608826,388.148285 687.438599,387.756073 
	C684.964233,382.053223 676.902710,385.341766 674.484009,379.650391 
	C666.770203,380.336975 658.241150,376.559998 651.708374,383.674774 
	C649.926697,385.615143 648.871033,388.158051 645.840393,390.003723 
	C652.797546,390.835938 657.683960,395.189728 663.945129,395.085236 
	C665.641907,395.056915 667.127136,395.760010 668.187622,397.276733 
	C669.216125,398.747559 670.703796,399.012238 672.526794,399.096802 
	C675.871887,399.251923 679.939514,398.085785 681.507690,402.889038 
	C681.801331,403.788696 683.250916,403.598419 684.257935,403.558990 
	C686.740112,403.461853 689.223267,403.389008 692.321228,403.280731 
M549.074341,476.638123 
	C551.584534,476.702179 553.543213,477.375183 555.618835,479.271149 
	C560.303894,483.550690 564.103638,482.005920 564.862122,475.963043 
	C565.060242,474.384857 565.353333,472.803162 566.939880,472.302734 
	C569.698364,471.432709 569.759277,469.411682 569.597473,467.167664 
	C569.265869,462.567932 569.401550,458.131012 574.016174,455.450500 
	C572.965576,453.896851 572.298157,452.583588 571.329285,451.554077 
	C569.902954,450.038452 567.957764,449.009277 566.124329,450.528320 
	C558.368530,456.954071 550.223877,462.971252 543.619568,470.828369 
	C545.051270,473.004944 545.739380,475.524902 549.074341,476.638123 
M645.450439,319.675171 
	C645.564209,319.363831 645.718994,319.061005 645.785400,318.739868 
	C646.571533,314.941620 645.655701,309.712433 652.601624,311.423462 
	C654.031372,311.775665 654.783325,310.057526 654.332886,308.550079 
	C653.963684,307.314392 653.688293,305.739563 652.118286,305.508362 
	C650.199646,305.225861 647.732300,304.516479 646.605774,306.502991 
	C644.953308,309.416992 642.194885,309.660858 639.744995,309.556305 
	C635.297668,309.366425 632.266785,311.645508 629.390747,314.335663 
	C628.118713,315.525452 626.110168,316.441040 625.484192,317.284149 
	C623.393982,320.099457 619.398315,322.141968 620.225098,326.660553 
	C620.406311,327.650604 620.298889,328.755402 621.674866,328.816345 
	C622.303223,328.844208 623.397461,328.764832 623.511047,328.453491 
	C625.410828,323.244141 629.781799,325.431122 633.209229,325.337616 
	C634.998840,325.288788 636.822571,325.430878 637.536499,323.768127 
	C639.047058,320.249512 642.141235,320.581421 645.450439,319.675171 
M778.978088,356.483124 
	C779.709839,356.861145 780.483765,357.630493 781.166748,357.556763 
	C788.166077,356.801300 792.971191,360.155640 797.240417,365.281311 
	C799.381226,367.851501 802.454773,367.174896 805.411743,365.629456 
	C803.253113,361.135223 799.261597,359.980377 795.436096,358.074463 
	C790.464050,355.597260 786.547424,351.459167 780.890625,349.579803 
	C778.209656,348.689087 774.503418,348.771210 772.513916,346.251160 
	C769.354126,342.248840 764.933289,339.843079 761.224670,336.556152 
	C760.114502,335.572174 759.059692,334.058929 757.445374,335.381775 
	C755.941650,336.614014 756.014587,338.570343 757.001953,339.938934 
	C758.707458,342.302917 760.673096,344.528717 762.792908,346.534119 
	C767.293213,350.791626 772.824036,353.446381 778.978088,356.483124 
M413.725769,466.377869 
	C411.535370,469.046539 411.828613,471.533264 414.380554,473.741455 
	C415.938171,475.089233 416.616699,476.831055 417.467682,478.660706 
	C420.577637,485.346924 423.770996,486.100708 428.231049,482.074127 
	C429.119873,481.271729 430.162323,480.866211 431.383667,480.810181 
	C433.777740,480.700348 434.743591,478.797394 434.365143,477.053955 
	C433.862091,474.736725 435.182220,471.140259 431.560699,470.436371 
	C428.558868,469.852844 426.584564,468.187439 424.553040,466.193909 
	C419.128510,460.870911 420.601379,460.169800 413.725769,466.377869 
M661.510132,300.792389 
	C664.478638,297.769623 664.459656,293.224609 667.534241,289.954559 
	C669.775452,287.570862 666.128906,282.719330 660.693481,280.083221 
	C659.741577,283.021484 657.255127,284.632721 654.814087,286.261902 
	C657.134460,292.553223 655.776428,298.769745 655.096558,305.092926 
	C658.335449,304.702362 659.524231,302.795593 661.510132,300.792389 
M728.739380,313.230042 
	C732.333069,318.186432 736.435913,317.257080 742.582642,310.310547 
	C738.900269,305.270355 733.613708,304.841431 728.014160,305.356628 
	C726.200073,305.523529 724.366150,305.507050 722.561829,305.736298 
	C721.100830,305.921906 718.643677,304.674896 718.551575,307.222260 
	C718.469177,309.503967 720.350952,311.044464 722.621216,311.555389 
	C724.496704,311.977478 726.657349,311.048676 728.739380,313.230042 
M642.459717,257.378510 
	C642.423218,257.532684 642.325439,257.706940 642.367493,257.835449 
	C642.410034,257.965607 642.592041,258.143372 642.711060,258.141968 
	C647.920227,258.081329 653.191711,259.637695 658.446838,257.733521 
	C651.774231,248.238556 650.557739,248.182281 643.294128,256.853882 
	C643.194702,256.972595 643.010254,257.020081 642.459717,257.378510 
z"/>
<path fill="#000000" opacity="1.000000" stroke="none" 
	d="
M452.756653,338.243927 
	C452.750977,342.212860 453.039062,345.422485 449.779724,348.527954 
	C448.082153,350.145325 448.762451,354.452606 448.702271,357.551361 
	C448.596405,363.002136 448.780304,368.457825 448.777863,373.911469 
	C448.776123,377.747467 449.883606,381.824127 445.151947,384.269653 
	C443.271606,385.241486 444.280823,387.958679 444.081299,389.894043 
	C443.783417,392.783936 444.480896,396.051422 440.350250,397.084167 
	C438.745880,397.485291 439.171326,399.282532 439.145599,400.554504 
	C439.066437,404.470642 439.312592,407.873383 435.311432,411.052887 
	C433.435974,412.543213 430.789307,416.188782 430.256104,419.639526 
	C429.673492,423.409973 426.966583,424.849609 423.993011,424.982086 
	C419.944275,425.162445 415.118835,426.780701 412.335938,422.003052 
	C410.282196,418.477234 412.036072,410.511230 415.211304,407.695282 
	C415.580200,407.368103 416.291901,406.976624 416.250885,406.704407 
	C415.331055,400.598877 418.870819,396.080475 421.564423,391.214478 
	C428.273956,379.093567 423.111420,365.922241 424.721954,353.333466 
	C425.093811,350.427216 424.287415,347.320038 428.196899,346.130798 
	C429.334229,345.784851 430.027954,344.378845 429.708679,343.222229 
	C427.626556,335.680237 434.291168,333.516510 437.855865,329.298798 
	C440.813690,325.799072 444.139069,325.344421 447.471863,327.379028 
	C451.116180,329.603760 454.670898,332.524200 452.756653,338.243927 
z"/>
<path fill="#000000" opacity="1.000000" stroke="none" 
	d="
M533.086914,391.482056 
	C533.726624,385.955353 534.919250,380.841064 529.987061,376.606293 
	C527.590454,374.548584 528.506897,370.915924 528.701904,367.998535 
	C528.884949,365.261017 529.531006,362.698853 533.155334,361.853821 
	C534.762146,361.479187 536.615356,359.355408 537.118652,357.658417 
	C538.065979,354.464233 537.501221,350.757324 541.980713,349.605499 
	C542.999329,349.343567 542.741882,347.558228 542.726257,346.392609 
	C542.688416,343.568024 543.117615,340.649109 542.549377,337.937775 
	C541.305969,332.004578 545.538086,329.566101 549.245544,327.087402 
	C553.140930,324.483032 559.607422,327.989288 560.612061,332.924591 
	C561.112732,335.383972 561.600769,337.415405 564.149109,339.006775 
	C567.377197,341.022614 566.791626,352.035522 563.712219,354.305267 
	C562.921814,354.887848 561.602417,355.166687 561.604553,356.226593 
	C561.620972,364.281708 554.415833,366.641602 549.823914,370.912201 
	C548.094727,372.520355 547.132080,373.558563 547.892883,375.795013 
	C548.101624,376.408569 548.252197,377.149323 548.111267,377.757996 
	C546.615295,384.218292 550.117371,388.527924 554.624634,392.113678 
	C557.337708,394.272064 557.921875,396.815704 556.788574,399.572693 
	C555.560364,402.560577 553.424377,404.894379 549.588440,404.561584 
	C547.299866,404.363037 544.987488,404.455933 542.688843,404.351105 
	C540.695618,404.260284 538.475464,403.129791 538.346436,401.555267 
	C538.002686,397.359711 534.624207,395.135223 533.086914,391.482056 
z"/>
<path fill="#000000" opacity="1.000000" stroke="none" 
	d="
M532.144653,329.710358 
	C534.409546,329.712524 536.526184,328.931000 537.349731,331.793030 
	C538.020386,334.124146 538.123840,335.868073 536.570068,338.206482 
	C533.508423,342.814209 530.628662,347.453583 526.179138,350.890381 
	C525.819336,351.168274 525.407715,351.782013 525.477783,352.153320 
	C526.573486,357.956451 521.053650,359.198212 518.386902,362.346008 
	C516.862061,364.145874 504.957764,363.955414 503.423309,362.434967 
	C500.746460,359.782654 501.233887,350.332214 504.214355,347.314362 
	C505.134247,346.382965 506.811157,345.540802 506.395752,344.200958 
	C504.968048,339.596497 507.566620,337.957886 511.212402,336.708160 
	C512.266785,336.346741 513.445923,335.612305 514.019836,334.702972 
	C518.472900,327.647186 525.393616,329.669342 532.144653,329.710358 
z"/>
<path fill="#000000" opacity="1.000000" stroke="none" 
	d="
M479.022308,260.603088 
	C473.582581,258.656525 475.433197,253.968307 475.258972,250.704956 
	C474.965668,245.211533 479.709900,241.385986 481.861816,236.622864 
	C483.188171,233.687119 489.460205,234.124771 491.731659,236.805099 
	C493.355591,238.721359 495.060638,239.467590 497.686707,239.563354 
	C501.499664,239.702438 504.072083,241.380112 503.437317,246.248367 
	C502.843811,250.800064 503.166382,255.491119 503.310089,260.113861 
	C503.478577,265.533417 498.022369,266.237518 495.417358,269.243561 
	C494.102478,270.760895 490.683990,268.655731 488.322906,266.530945 
	C485.791077,264.252502 481.311096,264.417023 479.022308,260.603088 
z"/>
<path fill="#000000" opacity="1.000000" stroke="none" 
	d="
M615.684326,258.647369 
	C615.772400,261.587036 615.520874,264.033234 612.683105,265.235474 
	C612.257141,265.415924 611.666138,265.853699 611.632080,266.217407 
	C610.874207,274.317230 602.687866,275.765442 598.710510,280.859772 
	C594.688965,286.010712 589.690857,285.350037 584.444763,285.367279 
	C580.908936,285.378906 579.136780,283.659210 578.891418,280.349762 
	C578.695068,277.701141 578.790344,275.025879 578.858337,272.365021 
	C578.888550,271.184509 579.261230,269.649719 580.323242,269.374420 
	C584.822754,268.208130 586.483765,263.181763 590.049866,261.724243 
	C594.929993,259.729675 598.930420,255.369003 604.703613,255.658035 
	C608.488281,255.847488 613.100891,252.729385 615.684326,258.647369 
z"/>
<path fill="#000000" opacity="1.000000" stroke="none" 
	d="
M448.001831,399.750122 
	C446.812042,394.776428 448.762543,391.479309 452.475006,389.248016 
	C456.836395,386.626648 459.656738,381.644073 466.389954,382.631714 
	C470.777435,383.275269 474.185577,384.662933 477.454041,387.186462 
	C477.947754,387.567657 478.269806,388.219635 478.566345,388.799988 
	C480.670654,392.918030 475.126099,403.849640 470.592194,404.380737 
	C467.807343,404.707001 464.811279,404.369995 463.957336,408.131836 
	C463.861237,408.555176 462.965820,408.895966 462.379852,409.093475 
	C457.598175,410.705139 449.072754,405.391418 448.001831,399.750122 
z"/>
<path fill="#000000" opacity="1.000000" stroke="none" 
	d="
M439.110229,419.567505 
	C443.281860,419.672577 446.933502,420.005005 449.903656,416.467194 
	C451.790802,414.219360 461.752319,414.772522 464.180328,416.587097 
	C467.404358,418.996643 466.801025,423.113190 465.694458,425.260895 
	C463.926270,428.692902 461.696503,432.986847 456.641571,433.096680 
	C449.170532,433.259064 441.695740,433.378815 434.224091,433.319550 
	C430.950012,433.293610 428.426483,429.666840 430.059357,427.135895 
	C432.163483,423.874512 434.469788,420.486786 439.110229,419.567505 
z"/>
<path fill="#000000" opacity="1.000000" stroke="none" 
	d="
M569.530823,392.547607 
	C565.948181,391.448517 564.553772,389.223389 564.712830,385.745697 
	C564.856812,382.596680 564.851013,379.433990 564.748962,376.282562 
	C564.655151,373.387512 565.806091,371.430908 568.654114,370.830414 
	C572.875061,369.940460 577.116028,370.498901 581.329773,371.060120 
	C581.752319,371.116394 582.478149,371.679260 582.448364,371.935791 
	C581.884094,376.806335 587.125122,378.271820 588.337280,382.072235 
	C588.487732,382.543640 589.005676,383.252014 588.863220,383.410736 
	C585.560730,387.090851 584.285645,392.576965 580.573059,395.354614 
	C577.425964,397.709137 572.685303,396.470093 569.530823,392.547607 
z"/>
<path fill="#000000" opacity="1.000000" stroke="none" 
	d="
M518.162109,265.437622 
	C517.633728,265.454834 517.466980,265.459656 517.301208,265.448914 
	C507.493225,264.812561 505.648895,262.120239 506.644592,252.099731 
	C507.053802,247.981583 510.959656,248.030563 512.556458,245.387939 
	C514.108398,242.819672 526.344910,242.953720 528.521973,245.057053 
	C531.830872,248.253952 531.463562,254.832260 527.465515,257.192108 
	C526.120911,257.985748 525.437622,258.454529 525.399536,259.948608 
	C525.284241,264.468933 522.767090,266.046875 518.162109,265.437622 
z"/>
<path fill="#000000" opacity="1.000000" stroke="none" 
	d="
M532.203247,412.731445 
	C536.544983,415.694427 539.151917,418.952972 538.383362,424.399475 
	C538.006592,427.069489 537.065308,428.682770 534.612122,428.476471 
	C530.171753,428.103119 525.807007,429.468597 521.334167,428.534149 
	C516.533081,427.531128 513.639709,421.504364 516.170532,417.118866 
	C518.906860,412.377197 526.924133,410.016388 532.203247,412.731445 
z"/>
<path fill="#000000" opacity="1.000000" stroke="none" 
	d="
M511.475037,400.029388 
	C506.317841,399.114960 506.060791,395.781433 506.382843,391.788574 
	C506.751801,387.213837 509.348236,386.925507 513.193542,386.798126 
	C518.684326,386.616211 523.257385,387.551147 527.107727,391.816132 
	C528.741150,393.625519 529.725403,395.268250 529.072144,397.538086 
	C528.304749,400.204407 525.960388,400.195068 523.764893,400.187653 
	C519.786438,400.174164 515.808167,400.102295 511.475037,400.029388 
z"/>
</svg>